<svg width="6" height="6" viewBox="0 0 6 6" fill="none" xmlns="http://www.w3.org/2000/svg">
<g clip-path="url(#clip0_0_17)">
<path d="M0.889134 3.85348L2.62494 5.60348C2.71795 5.69722 2.84407 5.74988 2.97558 5.74988C3.10709 5.74988 3.23321 5.69722 3.32621 5.60348L5.06202 3.85348C5.15236 3.75918 5.20235 3.63288 5.20122 3.50178C5.20009 3.37068 5.14793 3.24528 5.05598 3.15257C4.96403 3.05987 4.83964 3.00729 4.7096 3.00615C4.57957 3.00501 4.45429 3.0554 4.36076 3.14648L3.47152 4.04298L3.47152 0.749984C3.47152 0.617376 3.41927 0.4902 3.32627 0.396431C3.23326 0.302663 3.10711 0.249985 2.97558 0.249985C2.84405 0.249985 2.7179 0.302663 2.62489 0.396431C2.53188 0.4902 2.47963 0.617376 2.47963 0.749984L2.47963 4.04298L1.5904 3.14648C1.49686 3.0554 1.37159 3.00501 1.24155 3.00615C1.11152 3.00729 0.987128 3.05987 0.895176 3.15257C0.803223 3.24528 0.751065 3.37068 0.749935 3.50178C0.748805 3.63288 0.798793 3.75918 0.889134 3.85348Z" fill="#FF5B5B"/>
</g>
<defs>
<clipPath id="clip0_0_17">
<rect width="5.64706" height="5.69322" fill="white" transform="translate(5.95139 6) scale(1.05388) rotate(-180)"/>
</clipPath>
</defs>
</svg>
