<svg width="9" height="6" viewBox="0 0 9 6" fill="none" xmlns="http://www.w3.org/2000/svg">
<g clip-path="url(#clip0_0_23)">
<path d="M1.3169 2.85352C1.45465 2.94726 1.64146 2.99991 1.83624 2.99991C2.03102 2.99991 2.21782 2.94726 2.35557 2.85352L3.67264 1.95702L3.67264 5.25002C3.67264 5.38263 3.75003 5.50981 3.88779 5.60357C4.02555 5.69734 4.21239 5.75002 4.4072 5.75002C4.60202 5.75002 4.78886 5.69734 4.92662 5.60357C5.06437 5.50981 5.14176 5.38263 5.14176 5.25002L5.14176 1.95702L6.45883 2.85352C6.59737 2.9446 6.78292 2.995 6.97552 2.99386C7.16812 2.99272 7.35236 2.94013 7.48855 2.84743C7.62475 2.75473 7.702 2.62932 7.70367 2.49822C7.70535 2.36712 7.63131 2.24082 7.4975 2.14652L4.92654 0.396522C4.78879 0.302787 4.60198 0.250129 4.4072 0.250129C4.21242 0.250129 4.02562 0.302787 3.88787 0.396522L1.3169 2.14652C1.1792 2.24029 1.10183 2.36744 1.10183 2.50002C1.10183 2.6326 1.1792 2.75976 1.3169 2.85352Z" fill="#00A389"/>
</g>
<defs>
<clipPath id="clip0_0_23">
<rect width="8.36404" height="5.69322" fill="white" transform="translate(8.81471 6) scale(1.05388) rotate(-180)"/>
</clipPath>
</defs>
</svg>
